<svg xmlns="http://www.w3.org/2000/svg" fill="#fffacd" version="1.0" viewBox="0 0 1644 629"><path d="M817.5 9.7c-5.2 1.2-29.3 8.9-75.2 23.9-27.5 9-50.9 16.4-52 16.4-1 0-8.1-1.6-15.7-3.5-19.4-4.9-33.3-6.5-55.6-6.5-22.3 0-36.2 1.6-55.6 6.5-7.6 1.9-14.8 3.5-15.9 3.5-1.1 0-12.2-3.4-24.5-7.5C482.5 28.9 419.7 10 415.1 10c-5 0-4.4 5.3 7 61.5 6 29.9 9.2 47.9 9.8 56.1 1 12.6-.1 44.8-1.9 53.9-2.5 13.3-2.2 39.6.6 57.2l.6 3.9-22.9 3.3c-93.1 13.6-172.3 40-224.3 74.9-19.2 12.8-29.8 21.2-43 33.7-23.5 22.4-38.2 42-49.9 66.5-12.6 26.5-19.6 60.7-17.1 83.1 2 17.9 7.3 29.8 18.8 42l7.3 7.8-38.3.3c-42 .4-41.6.4-48.2 6.6-6.1 5.9-7.6 10-7.6 22.2 0 5.8.5 12.2 1 14.2 1.2 4.2 8.8 13.1 13.4 15.6 2.9 1.6 50.3 1.7 799.6 1.7h796.6l4.9-3.5c2.7-2 6.5-5.8 8.5-8.5 3.4-4.8 3.5-5.3 3.8-15.3.5-13.3-.8-17.8-6.7-24.4-8-8.9-1.5-8.3-89.2-8.6l-77.7-.3 4.3-8c3.1-5.7 6.6-10.2 12.3-15.7 5-4.8 8.3-9 9.1-11.2 2.8-9 31.5-150.8 46-228 20.3-107.6 20.7-110.1 16.6-117.9-2.2-4.3-8-10.6-11.8-13-8-4.8-10.6-5.1-56.5-6.1-23.9-.6-69.4-1.9-101.1-3-57.5-1.9-139.3-4-244.1-6-30.5-.6-66.1-1.5-79-2-12.9-.5-30.9-1-40-1-16.1 0-16.6.1-22.5 2.9-6.4 3-14.3 10.5-16.3 15.6-1.1 2.8-21.2 107.2-52.8 273.7L911.5 502h-33.7l3.6-4.9c6-8.2 8.9-15.6 9.4-24.2 1.2-20.6-11.8-32.9-42.9-40.4-7.5-1.8-7.6-1.8-10.2-6.9-1.5-2.8-4-8.5-5.7-12.6-11.1-27-29.7-54.4-53.9-79.2L763.8 319l7-8c16.5-19 28.6-42.3 35.8-68.7 2.6-9.3 2.7-11 2.8-33.3 0-18.6-.3-25.4-1.7-32.5-1-5.2-2-16.3-2.4-26-.6-19.7.1-26 7.7-65 7.9-40.1 13-68.1 13-70.7 0-1.2-.4-2.8-.8-3.5-.9-1.4-5-2.3-7.7-1.6zM486.4 47.1C516.1 57 542 65.3 544 65.6c2.4.4 7-.3 13.4-2 5.4-1.4 9.9-2.6 10.1-2.6.2 0 1.1 2.4 2 5.2 1 2.9 3.9 11 6.6 17.9 5 12.8 8 17.2 10 15.2 1.2-1.2 1.2-1.4 3-26.6 1.2-16.2 1.3-16.7 3.4-16.7 1.2 0 4.9-.3 8.2-.6l6-.7.7 4.9c1 6.6 8.3 43 9.6 47.6.8 2.6 1.7 3.8 2.9 3.8 2.3 0 2 1.3 7.2-29.6l4.3-25.9 8.6.3 8.6.3 2 21.7c1.7 19.1 2.1 21.7 3.7 22 2.1.4 7.3-10.1 13.4-27.1l3.8-10.8 4 .7c2.2.4 5.7 1.3 7.9 2 2.1.8 5 1.4 6.3 1.4 2.2 0 48-14.3 102.3-31.9 8.5-2.7 15.6-4.9 15.8-4.7.4.5-4.9 29.2-12.1 64.6l-6.1 30.5v23c0 17.7.4 25.1 1.8 32 3.7 19.3 3.2 40.4-1.6 61.7l-2.1 9.8-8.1-7.8c-9-8.6-19.3-14.6-31.4-18.2-11.3-3.3-13-2.2-3.8 2.4 10.1 5.1 19.2 12.1 23.7 18.2 4.1 5.5 10.9 18.5 10.9 20.9 0 1.6-8.7 19.5-9.4 19.5-.3 0-2.9-3.5-5.9-7.8-3-4.3-7.9-10-10.8-12.7-6.8-6.1-17.3-12.9-17.7-11.6-.2.6 3 5 7 9.8 8.3 9.8 12.9 19.2 14.8 30.5 1.4 8 1.2 8.4-10.8 19.2-38.8 35.1-85.4 50.5-140.8 46.7-41.7-2.9-76.3-16.2-107.4-41.2-11.2-9-16.7-14.8-17.6-18.6-1.9-7.3 6.9-26.7 17.6-39 3.7-4.3 6.7-8 6.5-8.1-.2-.2-2.5.9-5.2 2.4-6.5 3.8-23.3 20.7-26.9 27.1-1.6 2.9-3.1 5.3-3.5 5.3-1.3 0-9.9-15.8-9.9-18.3 0-3.9 3.2-11.6 7.1-17.3 7.8-11.4 17.4-19.4 30.7-25.7 6.6-3 6.6-3.1 3.4-3.5-4.3-.4-15.9 3.1-23.7 7.1-3.7 2-9.9 7-16.1 13l-10.2 9.8-2.6-11c-4.8-20-5.6-33.9-3.1-52.6.9-6.1 2-14.4 2.6-18.5.5-4.1 1-15.4 1-25 0-16.1-.3-19.3-4-40-2.2-12.4-6.5-34.9-9.6-49.9-3-15.1-5.5-27.7-5.5-27.9 0-.2.8-.1 1.8.3.9.4 26 8.8 55.6 18.6zm698.6 114c81.7 2.1 171 4.6 198.5 5.4 27.5.8 70.3 2 95 2.6 50.2 1.3 48.4 1 54.3 8.7 4.9 6.5 5.8 1.5-33.1 196.9-29.7 149.4-27.7 141.2-35.6 145.3-3.9 1.9-6.3 2-160.3 2-86 .1-203.7-.2-261.6-.6l-105.2-.7-4-4.3c-2.2-2.4-4.2-5.5-4.6-7.1-.8-3.1 11.7-73.6 41.2-231.5 19.8-106.7 19.8-106.5 22.5-112 4-8 10.7-9.8 33.4-9.1 6.1.2 77.8 2.2 159.5 4.4zM443.4 275.2c22.5 46.8 64.9 80.1 120.1 94.3 20.8 5.4 32.4 6.8 55 6.8 21.7 0 34.1-1.4 52.4-5.9 26.4-6.5 54.3-19.2 74.1-33.8l5.4-4 9.9 10.5c19.2 20.2 30.5 34.8 41.1 53.3C808 407.8 817 425.5 817 427c0 .6-4.9 1-13.1 1-20 0-25.4 2.1-25.4 10.1 0 6.8 1.1 7.2 21.8 8.1 35.5 1.5 47.6 3.6 61.7 10.6 8.4 4.2 11.2 7.3 11.2 12.6 0 7.6-6.2 17.5-14.2 22.6-8.1 5.2-16.1 7.2-25.5 6.5-33.6-2.6-59.8-15-81.9-38.7-7.4-7.9-8.9-9.1-11.7-9-4.6.1-8.9 4.5-8.9 9.2 0 1.9.7 4.7 1.6 6 4.3 6.3 22.8 23.3 32.3 29.6l4.5 2.9-29.9.3-29.8.2-4.9-4.1c-16.6-14-38.3-21.7-63.5-22.6l-14.1-.5-3.3-7.2c-8.6-18.9-27.4-41.4-46-55.1-7.1-5.2-10.4-5.7-14.8-1.9-2.6 2.1-3.1 3.3-3.1 6.8 0 4 .4 4.6 15.6 19.6 19.4 19.3 32.9 36.8 30.9 40-.3.5-4.1 2.9-8.5 5.4-19.7 11.1-27.9 23.6-20.2 30.9 3.6 3.5 8.5 3.6 11 .4 4.7-6.1 13.3-13.6 18.2-15.9 8.3-3.9 15.4-5.2 28-5.2 32.4 0 65 14.7 65 29.3 0 9.5-25.2 22.7-55.5 29-17.7 3.6-31.5 4.6-48 3.3-16-1.2-14-.6-39.3-12.3-27.4-12.7-50-38-63.3-71.1-5.3-13.2-8.1-18.3-10.5-19.2-3.6-1.4-8.2-.6-10.9 2-2.4 2.2-2.7 3.1-2.3 7.2 1 9.7 11.7 32.3 24.6 51.7 8 12 22.3 26.7 34.2 35l8.5 6-81.9.3c-45.1.1-82.1.1-82.3-.1-.2-.2.4-2 1.2-4 1-2.5 1.5-7.1 1.5-14.6 0-10.7-.1-11-4-19-4.7-9.2-12.2-18-19.7-22.7-7.4-4.8-18.8-8.4-26.6-8.4h-6.4l-1.2-5.8c-3-13.7-14.2-30.3-25.7-38.3-11.4-7.8-28.9-13.8-36.3-12.3-3.8.8-8.1 4.9-8.1 7.8 0 4 3.8 6.3 14.2 8.4 18.3 3.8 29.1 12.1 37.2 28.7 2.5 5.2 4.6 10 4.6 10.5 0 .7-19 1-54.3 1h-54.4l-2.4 2.6c-3.1 3.3-3.3 10.2-.5 13.3 1.9 2.1 2 2.1 71.7 2.1h69.8l6.8 5.1c9.8 7.2 10.9 8.4 13.8 14.5 3.2 6.7 4.6 13.8 3.6 18.4-.9 4.4-6.5 8.4-14.7 10.5-13.2 3.3-201 3.6-211.4.4-8.2-2.6-17.7-8.5-24-14.9-13.6-13.7-17.3-29.4-13.4-57.1 6-43.2 25.8-78.4 62.9-111.8 7.4-6.7 13.7-12.1 14-12.1.4 0 4.8 2.1 9.8 4.6 12.4 6.2 29.5 17.7 39.1 26.4 4.3 3.9 8 6.9 8.3 6.6 1.8-1.8-21-28.3-34.1-39.5-4.7-4.1-8.6-7.8-8.6-8.3 0-1.1 8.8-6.5 27.2-17 18-10.2 15.3-9.9 29.3-3 14.9 7.3 32.4 19 45.8 30.5 3.2 2.7 6 4.7 6.4 4.3 2.1-2.1-18.4-25.9-34.6-40-5.6-4.9-9.8-9.3-9.4-9.7 1.2-1.1 28.3-12.6 32.9-14 3.8-1 4.9-.9 12.5 2.1 29.4 11.2 55 28.4 76.5 51.3 5 5.3 9.4 9.7 9.8 9.7 1.5 0-8.7-17.8-15.2-26.5-8.5-11.5-27.1-30.7-38.5-39.8-4.8-3.8-8.4-7.3-8-7.7 1.2-1 41.4-10 44.7-10 3.4 0 11.6 4.1 24.2 12 15.3 9.6 24.2 16.8 38.5 31 15.4 15.2 26.7 29.9 36.3 47 3.6 6.3 7 12.2 7.6 13 2.1 3 0-7.4-4.1-19.5-9.3-28.1-25.5-55.1-45.8-76.8-4.2-4.5-8.7-9.6-9.9-11.3l-2.1-3.1 10.2-1.5c18-2.7 15.7-3.8 23.1 11.4zm473.9 246.2c3.7 5.9 9.9 11.4 15.9 14l4.9 2.2-3.4 4.5c-1.9 2.4-5.3 5.8-7.6 7.3-3.6 2.5-5.5 3-13.9 3.7-14.4 1.1-189.8 2.3-210.6 1.4l-17.9-.7 7.9-4.2c13.9-7.2 24.3-19.6 24.4-28.9V517h197.5l2.8 4.4zm533.6 17.2c.2.2-1.5 2.5-3.8 5.2-7.8 9.4 2.5 8.6-116.6 9.3-57.7.4-167.6.7-244.1.8l-139.2.1 4.2-8.5 4.1-8.6 247.5.7c136.1.3 247.7.8 247.9 1zm163.6 33.4 2.9 3h-567.5l-5.2 2.6c-2.8 1.5-15.3 7-27.7 12.3l-22.5 9.6-482.5-.4c-411.5-.3-482.9-.5-485.2-1.7-4-2.1-5.8-6.3-5.8-13.6 0-4.5.6-7.2 2-9.6 1.1-1.7 2.1-3.3 2.2-3.4.8-.7 410.8-1.4 961.9-1.6l624.5-.2 2.9 3z"/><path d="M450.8 51.5c-1 2.3-.3 7.3 5.2 35.2 5.8 29.2 6.7 32.7 8.7 33.6 3.2 1.4 6.6.2 8.5-3.1 2.6-4.3 20.2-20.9 29.8-28 16.9-12.4 19.2-15.1 15.6-18.1-2.9-2.4-52.4-19.3-63.3-21.6-2.9-.6-3.4-.3-4.5 2zm26.5 16.4c5.9 2 10.8 4 10.8 4.4 0 .4-4.5 5-9.9 10.2l-9.9 9.4-2.8-12.4c-1.5-6.9-2.9-13.5-3.2-14.6-.7-2.4-2-2.7 15 3zM779.5 50.3c-5.3 1.3-54.2 18.1-57.7 19.7-3.9 1.8-4.5 4.6-1.7 7.6 1.3 1.4 6.6 5.5 11.9 9.2 5.6 3.9 15.1 12.2 23.3 20.4 14.1 14.2 17.4 16.2 19.6 12 1.6-3.1 9.6-40.8 13.6-64.4.3-2-.1-3.1-1.8-4.3-1.2-.8-2.4-1.5-2.7-1.4-.3.1-2.3.6-4.5 1.2zm-9 18.9C768.7 80.8 765 89 761.7 89c-2.4 0-9.1-5.2-15-11.6l-3.8-4.2 7.8-2.6c7.3-2.4 17.7-5.3 19.6-5.5.5-.1.6 1.8.2 4.1zM544.8 121c-14.3 2.5-28.6 18-34.2 36.9-.9 3-1.6 7.1-1.6 9.1v3.7l-8.2 1.2c-11.8 1.7-41.2 9-44.6 11.1-8.2 5-8.3 20.6-.1 27.5 5.5 4.5 14 4.2 15.2-.6.6-2.3-1.9-5.9-4.2-5.9-3.1 0-7.1-3.9-7.1-6.9 0-4.9 2.7-6 24.2-10.7 11.2-2.4 21.3-4.4 22.4-4.4 1.8 0 2.3.9 3.3 5.7 2.3 12.1 11.9 27.2 21.4 33.7 28.4 19.6 61.2 3.8 70.7-33.9 1.1-4.4 2.7-8.5 3.6-9.2 3.8-2.8 25.2-2.9 28.1-.1.7.7 2.2 4.9 3.3 9.3 2.8 11.2 7.2 19.6 14 26.9 10 10.6 21.2 15.1 35.9 14.4 11.2-.6 18.3-3.8 26.7-12.2 7-7 12.8-17.8 14.8-27.7.7-3.3 1.9-6.5 2.7-6.9 2.7-1.5 42.7 7.9 45.5 10.7 2.3 2.4 1.7 6.9-1.2 9.2-1.5 1.2-3.2 2.1-3.9 2.1-1.6 0-4.5 3.3-4.5 5.2 0 3.1 3.7 5.1 8.1 4.5 8.2-1.1 13.9-7.8 13.9-16.4 0-6-1.7-10.1-5.4-13-1.5-1.2-12.4-4.5-28-8.4l-25.6-6.4-.5-3.5c-.8-5.8-4.4-15.9-7.8-21.9-4.2-7.5-13.9-16.9-21.2-20.6-5.7-2.8-6.7-3-18-3-11.2 0-12.4.2-18 2.9-7.5 3.7-16.9 13.1-21.2 21.1-2.5 4.7-7.3 19.2-7.3 22 0 .3-7.5.5-16.8.5h-16.7l-1.2-6.1c-2.9-15-13.4-29.5-26.5-36.5-6.7-3.5-8-3.8-16.3-4-4.9-.2-11.1.1-13.7.6zM696 132.5c23.5 11.9 31 48.4 14.5 70.3-11 14.4-24.9 19.4-39.2 14-10.4-3.9-20.3-16.2-23.2-28.9-1.8-7.7-1.3-22 .9-29.3 7-22.6 29.3-35 47-26.1zm-126.5 0c5.3 2.5 13.3 10.7 16.7 17.1 5.4 9.9 7.3 25.1 4.7 36.4-2.7 11.9-13.2 26-22.3 30.1-6.6 2.9-20.7 3.1-26.1.4-10.1-4.9-20.1-19.5-22.6-33-1.7-8.8-.6-21 2.5-27.9 5-11.2 14.2-21.2 22.3-24.2 5.4-2 19.6-1.3 24.8 1.1zM599.3 233.4c-3.8 1.7-5.3 4.3-5.3 9.1 0 7.1 5.2 13.1 14 16.2 5.7 2 6 3 2.7 8.8-5.1 9-15.5 11.4-23.8 5.3-2.4-1.7-5.2-4.2-6.2-5.5-2.2-2.8-6.7-3-9-.5-2.2 2.4-2.1 3.4.3 8.1 3.5 6.9 14.3 14.1 21.1 14.1 1.4 0 1.7 1.5 2.1 11.2.5 12.7 1.5 15.6 7.4 20.8 5.2 4.6 9.9 6.3 16.9 6.3 6.9 0 11.7-1.7 16.7-6.2 5.7-5 6.8-8.4 6.8-20.9v-11l4.8-.7c6.4-.9 12.4-4.6 16.7-10.2 3.9-5.1 4.5-9.1 1.8-11.5-4.1-3.5-5.4-3.1-11.4 2.8-6.4 6.3-10.4 7.7-17.3 6-5.7-1.4-11.6-7.6-11.6-12.1 0-2.5.5-3.7 1.8-4.1 9.9-3.2 15.2-8 16-14.9.6-5.4-.9-8.7-4.7-10.6-4-2-35.6-2.4-39.8-.5zm25.3 55.8c5 3 5.4 3.5 4.9 6.2-1.7 9.3-11.1 17.3-19.6 16.7-1.9-.1-3.3-2.9-4.9-10.4-1.2-5.1-1.2-6 .3-7.4 1.3-1.3 11.7-7.6 13.5-8.2.2 0 2.8 1.4 5.8 3.1zM1250.2 328.7c-1.5 9.5-5.3 16.6-11.6 21.4-5.8 4.4-10.4 5.9-18.6 5.9-4.6 0-7.5-.6-11.2-2.5-6-3-5.8-3-5.8-.3.1 1.3 2.3 5.4 5.1 9.1 6.7 9 11 11.1 22.9 11.1 7.3 0 9.2-.4 13.7-2.7 6.3-3.2 11.5-8.3 14.5-14 1.9-3.5 2.3-5.7 2.3-13.7-.1-6.9-.5-10.3-1.7-12.6-2-3.7-6.7-9.4-7.7-9.4-.3 0-1.2 3.4-1.9 7.7zM886.2 529.3c-4 4.2-4.4 9.2-.8 13.3 4.3 5.1 13 3.2 16.1-3.3 2.1-4.4.6-8.6-3.9-11.4-4.6-2.8-7.7-2.4-11.4 1.4zM774.5 531.9c-2 4-1 9 2.2 10.2 3.3 1.2 88.9 1.2 93.2-.1 1.9-.5 3.8-1.5 4.3-2.2 1.5-2.4.8-6.5-1.5-8.6-2.3-2.2-2.4-2.2-49.5-2.2h-47.1l-1.6 2.9z"/></svg>