<svg xmlns="http://www.w3.org/2000/svg" version="1.0" viewBox="0 0 1644.000000 629.000000" preserveAspectRatio="xMidYMid meet" width="100%" fill="darkslateblue">
<path d="M 817.5 9.7 c -5.2 1.2 -29.3 8.9 -75.2 23.9 c -27.5 9 -50.9 16.4 -52 16.4 c -1 0 -8.1 -1.6 -15.7 -3.5 c -19.4 -4.9 -33.3 -6.5 -55.6 -6.5 c -22.3 0 -36.2 1.6 -55.6 6.5 c -7.6 1.9 -14.8 3.5 -15.9 3.5 c -1.1 0 -12.2 -3.4 -24.5 -7.5 c -40.5 -13.6 -103.3 -32.5 -107.9 -32.5 c -5 0 -4.4 5.3 7 61.5 c 6 29.9 9.2 47.9 9.8 56.1 c 1 12.6 -0.1 44.8 -1.9 53.9 c -2.5 13.3 -2.2 39.6 0.6 57.2 l 0.6 3.9 l -22.9 3.3 c -93.1 13.6 -172.3 40 -224.3 74.9 c -19.2 12.8 -29.8 21.2 -43 33.7 c -23.5 22.4 -38.2 42 -49.9 66.5 c -12.6 26.5 -19.6 60.7 -17.1 83.1 c 2 17.9 7.3 29.8 18.8 42 l 7.3 7.8 l -38.3 0.3 c -42 0.4 -41.6 0.4 -48.2 6.6 c -6.1 5.9 -7.6 10 -7.6 22.2 c 0 5.8 0.5 12.2 1 14.2 c 1.2 4.2 8.8 13.1 13.4 15.6 c 2.9 1.6 50.3 1.7 799.6 1.7 l 796.6 0 l 4.9 -3.5 c 2.7 -2 6.5 -5.8 8.5 -8.5 c 3.4 -4.8 3.5 -5.3 3.8 -15.3 c 0.5 -13.3 -0.8 -17.8 -6.7 -24.4 c -8 -8.9 -1.5 -8.3 -89.2 -8.6 l -77.7 -0.3 l 4.3 -8 c 3.1 -5.7 6.6 -10.2 12.3 -15.7 c 5 -4.8 8.3 -9 9.1 -11.2 c 2.8 -9 31.5 -150.8 46 -228 c 20.3 -107.6 20.7 -110.1 16.6 -117.9 c -2.2 -4.3 -8 -10.6 -11.8 -13 c -8 -4.8 -10.6 -5.1 -56.5 -6.1 c -23.9 -0.6 -69.4 -1.9 -101.1 -3 c -57.5 -1.9 -139.3 -4 -244.1 -6 c -30.5 -0.6 -66.1 -1.5 -79 -2 c -12.9 -0.5 -30.9 -1 -40 -1 c -16.1 0 -16.6 0.1 -22.5 2.9 c -6.4 3 -14.3 10.5 -16.3 15.6 c -1.1 2.8 -21.2 107.2 -52.8 273.7 l -12.9 67.8 l -16.8 0 l -16.9 0 l 3.6 -4.9 c 6 -8.2 8.9 -15.6 9.4 -24.2 c 1.2 -20.6 -11.8 -32.9 -42.9 -40.4 c -7.5 -1.8 -7.6 -1.8 -10.2 -6.9 c -1.5 -2.8 -4 -8.5 -5.7 -12.6 c -11.1 -27 -29.7 -54.4 -53.9 -79.2 l -14.3 -14.8 l 7 -8 c 16.5 -19 28.6 -42.3 35.8 -68.7 c 2.6 -9.3 2.7 -11 2.8 -33.3 c 0 -18.6 -0.3 -25.4 -1.7 -32.5 c -1 -5.2 -2 -16.3 -2.4 -26 c -0.6 -19.7 0.1 -26 7.7 -65 c 7.9 -40.1 13 -68.1 13 -70.7 c 0 -1.2 -0.4 -2.8 -0.8 -3.5 c -0.9 -1.4 -5 -2.3 -7.7 -1.6 z m -331.1 37.4 c 29.7 9.9 55.6 18.2 57.6 18.5 c 2.4 0.4 7 -0.3 13.4 -2 c 5.4 -1.4 9.9 -2.6 10.1 -2.6 c 0.2 0 1.1 2.4 2 5.2 c 1 2.9 3.9 11 6.6 17.9 c 5 12.8 8 17.2 10 15.2 c 1.2 -1.2 1.2 -1.4 3 -26.6 c 1.2 -16.2 1.3 -16.7 3.4 -16.7 c 1.2 0 4.9 -0.3 8.2 -0.6 l 6 -0.7 l 0.7 4.9 c 1 6.6 8.3 43 9.6 47.6 c 0.8 2.6 1.7 3.8 2.9 3.8 c 2.3 0 2 1.3 7.2 -29.6 l 4.3 -25.9 l 8.6 0.3 l 8.6 0.3 l 2 21.7 c 1.7 19.1 2.1 21.7 3.7 22 c 2.1 0.4 7.3 -10.1 13.4 -27.1 l 3.8 -10.8 l 4 0.7 c 2.2 0.4 5.7 1.3 7.9 2 c 2.1 0.8 5 1.4 6.3 1.4 c 2.2 0 48 -14.3 102.3 -31.9 c 8.5 -2.7 15.6 -4.9 15.8 -4.7 c 0.4 0.5 -4.9 29.2 -12.1 64.6 l -6.1 30.5 l 0 23 c 0 17.7 0.4 25.1 1.8 32 c 3.7 19.3 3.2 40.4 -1.6 61.7 l -2.1 9.8 l -8.1 -7.8 c -9 -8.6 -19.3 -14.6 -31.4 -18.2 c -11.3 -3.3 -13 -2.2 -3.8 2.4 c 10.1 5.1 19.2 12.1 23.7 18.2 c 4.1 5.5 10.9 18.5 10.9 20.9 c 0 1.6 -8.7 19.5 -9.4 19.5 c -0.3 0 -2.9 -3.5 -5.9 -7.8 c -3 -4.3 -7.9 -10 -10.8 -12.7 c -6.8 -6.1 -17.3 -12.9 -17.7 -11.6 c -0.2 0.6 3 5 7 9.8 c 8.3 9.8 12.9 19.2 14.8 30.5 c 1.4 8 1.2 8.4 -10.8 19.2 c -38.8 35.1 -85.4 50.5 -140.8 46.7 c -41.7 -2.9 -76.3 -16.2 -107.4 -41.2 c -11.2 -9 -16.7 -14.8 -17.6 -18.6 c -1.9 -7.3 6.9 -26.7 17.6 -39 c 3.7 -4.3 6.7 -8 6.5 -8.1 c -0.2 -0.2 -2.5 0.9 -5.2 2.4 c -6.5 3.8 -23.3 20.7 -26.9 27.1 c -1.6 2.9 -3.1 5.3 -3.5 5.3 c -1.3 0 -9.9 -15.8 -9.9 -18.3 c 0 -3.9 3.2 -11.6 7.1 -17.3 c 7.8 -11.4 17.4 -19.4 30.7 -25.7 c 6.6 -3 6.6 -3.1 3.4 -3.5 c -4.3 -0.4 -15.9 3.1 -23.7 7.1 c -3.7 2 -9.9 7 -16.1 13 l -10.2 9.8 l -2.6 -11 c -4.8 -20 -5.6 -33.9 -3.1 -52.6 c 0.9 -6.1 2 -14.4 2.6 -18.5 c 0.5 -4.1 1 -15.4 1 -25 c 0 -16.1 -0.3 -19.3 -4 -40 c -2.2 -12.4 -6.5 -34.9 -9.6 -49.9 c -3 -15.1 -5.5 -27.7 -5.5 -27.9 c 0 -0.2 0.8 -0.1 1.8 0.3 c 0.9 0.4 26 8.8 55.6 18.6 z m 698.6 114 c 81.7 2.1 171 4.6 198.5 5.4 c 27.5 0.8 70.3 2 95 2.6 c 50.2 1.3 48.4 1 54.3 8.7 c 4.9 6.5 5.8 1.5 -33.1 196.9 c -29.7 149.4 -27.7 141.2 -35.6 145.3 c -3.9 1.9 -6.3 2 -160.3 2 c -86 0.1 -203.7 -0.2 -261.6 -0.6 l -105.2 -0.7 l -4 -4.3 c -2.2 -2.4 -4.2 -5.5 -4.6 -7.1 c -0.8 -3.1 11.7 -73.6 41.2 -231.5 c 19.8 -106.7 19.8 -106.5 22.5 -112 c 4 -8 10.7 -9.8 33.4 -9.1 c 6.1 0.2 77.8 2.2 159.5 4.4 z m -741.6 114.1 c 22.5 46.8 64.9 80.1 120.1 94.3 c 20.8 5.4 32.4 6.8 55 6.8 c 21.7 0 34.1 -1.4 52.4 -5.9 c 26.4 -6.5 54.3 -19.2 74.1 -33.8 l 5.4 -4 l 9.9 10.5 c 19.2 20.2 30.5 34.8 41.1 53.3 c 6.6 11.4 15.6 29.1 15.6 30.6 c 0 0.6 -4.9 1 -13.1 1 c -20 0 -25.4 2.1 -25.4 10.1 c 0 6.8 1.1 7.2 21.8 8.1 c 35.5 1.5 47.6 3.6 61.7 10.6 c 8.4 4.2 11.2 7.3 11.2 12.6 c 0 7.6 -6.2 17.5 -14.2 22.6 c -8.1 5.2 -16.1 7.2 -25.5 6.5 c -33.6 -2.6 -59.8 -15 -81.9 -38.7 c -7.4 -7.9 -8.9 -9.1 -11.7 -9 c -4.6 0.1 -8.9 4.5 -8.9 9.2 c 0 1.9 0.7 4.7 1.6 6 c 4.3 6.3 22.8 23.3 32.3 29.6 l 4.5 2.9 l -29.9 0.3 l -29.8 0.2 l -4.9 -4.1 c -16.6 -14 -38.3 -21.7 -63.5 -22.6 l -14.1 -0.5 l -3.3 -7.2 c -8.6 -18.9 -27.4 -41.4 -46 -55.1 c -7.1 -5.2 -10.4 -5.7 -14.8 -1.9 c -2.6 2.1 -3.1 3.3 -3.1 6.8 c 0 4 0.4 4.6 15.6 19.6 c 19.4 19.3 32.9 36.8 30.9 40 c -0.3 0.5 -4.1 2.9 -8.5 5.4 c -19.7 11.1 -27.9 23.6 -20.2 30.9 c 3.6 3.5 8.5 3.6 11 0.4 c 4.7 -6.1 13.3 -13.6 18.2 -15.9 c 8.3 -3.9 15.4 -5.2 28 -5.2 c 32.4 0 65 14.7 65 29.3 c 0 9.5 -25.2 22.7 -55.5 29 c -17.7 3.6 -31.5 4.6 -48 3.3 c -16 -1.2 -14 -0.6 -39.3 -12.3 c -27.4 -12.7 -50 -38 -63.3 -71.1 c -5.3 -13.2 -8.1 -18.3 -10.5 -19.2 c -3.6 -1.4 -8.2 -0.6 -10.9 2 c -2.4 2.2 -2.7 3.1 -2.3 7.2 c 1 9.7 11.7 32.3 24.6 51.7 c 8 12 22.3 26.7 34.2 35 l 8.5 6 l -81.9 0.3 c -45.1 0.1 -82.1 0.1 -82.3 -0.1 c -0.2 -0.2 0.4 -2 1.2 -4 c 1 -2.5 1.5 -7.1 1.5 -14.6 c 0 -10.7 -0.1 -11 -4 -19 c -4.7 -9.2 -12.2 -18 -19.7 -22.7 c -7.4 -4.8 -18.8 -8.4 -26.6 -8.4 l -6.4 0 l -1.2 -5.8 c -3 -13.7 -14.2 -30.3 -25.7 -38.3 c -11.4 -7.8 -28.9 -13.8 -36.3 -12.3 c -3.8 0.8 -8.1 4.9 -8.1 7.8 c 0 4 3.8 6.3 14.2 8.4 c 18.3 3.8 29.1 12.1 37.2 28.7 c 2.5 5.2 4.6 10 4.6 10.5 c 0 0.7 -19 1 -54.3 1 l -54.4 0 l -2.4 2.6 c -3.1 3.3 -3.3 10.2 -0.5 13.3 c 1.9 2.1 2 2.1 71.7 2.1 l 69.8 0 l 6.8 5.1 c 9.8 7.2 10.9 8.4 13.8 14.5 c 3.2 6.7 4.6 13.8 3.6 18.4 c -0.9 4.4 -6.5 8.4 -14.7 10.5 c -13.2 3.3 -201 3.6 -211.4 0.4 c -8.2 -2.6 -17.7 -8.5 -24 -14.9 c -13.6 -13.7 -17.3 -29.4 -13.4 -57.1 c 6 -43.2 25.8 -78.4 62.9 -111.8 c 7.4 -6.7 13.7 -12.1 14 -12.1 c 0.4 0 4.8 2.1 9.8 4.6 c 12.4 6.2 29.5 17.7 39.1 26.4 c 4.3 3.9 8 6.9 8.3 6.6 c 1.8 -1.8 -21 -28.3 -34.1 -39.5 c -4.7 -4.1 -8.6 -7.8 -8.6 -8.3 c 0 -1.1 8.8 -6.5 27.2 -17 c 18 -10.2 15.3 -9.9 29.3 -3 c 14.9 7.3 32.4 19 45.8 30.5 c 3.2 2.7 6 4.7 6.4 4.3 c 2.1 -2.1 -18.4 -25.9 -34.6 -40 c -5.6 -4.9 -9.8 -9.3 -9.4 -9.7 c 1.2 -1.1 28.3 -12.6 32.9 -14 c 3.8 -1 4.9 -0.9 12.5 2.1 c 29.4 11.2 55 28.4 76.5 51.3 c 5 5.3 9.4 9.7 9.8 9.7 c 1.5 0 -8.7 -17.8 -15.2 -26.5 c -8.5 -11.5 -27.1 -30.7 -38.5 -39.8 c -4.8 -3.8 -8.4 -7.3 -8 -7.7 c 1.2 -1 41.4 -10 44.7 -10 c 3.4 0 11.6 4.1 24.2 12 c 15.3 9.6 24.2 16.8 38.5 31 c 15.4 15.2 26.7 29.9 36.3 47 c 3.6 6.3 7 12.2 7.6 13 c 2.1 3 0 -7.4 -4.1 -19.5 c -9.3 -28.1 -25.5 -55.1 -45.8 -76.8 c -4.2 -4.5 -8.7 -9.6 -9.9 -11.3 l -2.1 -3.1 l 10.2 -1.5 c 18 -2.7 15.7 -3.8 23.1 11.4 z m 473.9 246.2 c 3.7 5.9 9.9 11.4 15.9 14 l 4.9 2.2 l -3.4 4.5 c -1.9 2.4 -5.3 5.8 -7.6 7.3 c -3.6 2.5 -5.5 3 -13.9 3.7 c -14.4 1.1 -189.8 2.3 -210.6 1.4 l -17.9 -0.7 l 7.9 -4.2 c 13.9 -7.2 24.3 -19.6 24.4 -28.9 l 0 -3.7 l 98.8 0 l 98.7 0 l 2.8 4.4 z m 533.6 17.2 c 0.2 0.2 -1.5 2.5 -3.8 5.2 c -7.8 9.4 2.5 8.6 -116.6 9.3 c -57.7 0.4 -167.6 0.7 -244.1 0.8 l -139.2 0.1 l 4.2 -8.5 l 4.1 -8.6 l 247.5 0.7 c 136.1 0.3 247.7 0.8 247.9 1 z m 163.6 33.4 l 2.9 3 l -283.7 0 l -283.8 0 l -5.2 2.6 c -2.8 1.5 -15.3 7 -27.7 12.3 l -22.5 9.6 l -482.5 -0.4 c -411.5 -0.3 -482.9 -0.5 -485.2 -1.7 c -4 -2.1 -5.8 -6.3 -5.8 -13.6 c 0 -4.5 0.6 -7.2 2 -9.6 c 1.1 -1.7 2.1 -3.3 2.2 -3.4 c 0.8 -0.7 410.8 -1.4 961.9 -1.6 l 624.5 -0.2 l 2.9 3 z"/><path d="M 450.8 51.5 c -1 2.3 -0.3 7.3 5.2 35.2 c 5.8 29.2 6.7 32.7 8.7 33.6 c 3.2 1.4 6.6 0.2 8.5 -3.1 c 2.6 -4.3 20.2 -20.9 29.8 -28 c 16.9 -12.4 19.2 -15.1 15.6 -18.1 c -2.9 -2.4 -52.4 -19.3 -63.3 -21.6 c -2.9 -0.6 -3.4 -0.3 -4.5 2 z m 26.5 16.4 c 5.9 2 10.8 4 10.8 4.4 c 0 0.4 -4.5 5 -9.9 10.2 l -9.9 9.4 l -2.8 -12.4 c -1.5 -6.9 -2.9 -13.5 -3.2 -14.6 c -0.7 -2.4 -2 -2.7 15 3 z"/><path d="M 779.5 50.3 c -5.3 1.3 -54.2 18.1 -57.7 19.7 c -3.9 1.8 -4.5 4.6 -1.7 7.6 c 1.3 1.4 6.6 5.5 11.9 9.2 c 5.6 3.9 15.1 12.2 23.3 20.4 c 14.1 14.2 17.4 16.2 19.6 12 c 1.6 -3.1 9.6 -40.8 13.6 -64.4 c 0.3 -2 -0.1 -3.1 -1.8 -4.3 c -1.2 -0.8 -2.4 -1.5 -2.7 -1.4 c -0.3 0.1 -2.3 0.6 -4.5 1.2 z m -9 18.9 c -1.8 11.6 -5.5 19.8 -8.8 19.8 c -2.4 0 -9.1 -5.2 -15 -11.6 l -3.8 -4.2 l 7.8 -2.6 c 7.3 -2.4 17.7 -5.3 19.6 -5.5 c 0.5 -0.1 0.6 1.8 0.2 4.1 z"/><path d="M 544.8 121 c -14.3 2.5 -28.6 18 -34.2 36.9 c -0.9 3 -1.6 7.1 -1.6 9.1 l 0 3.7 l -8.2 1.2 c -11.8 1.7 -41.2 9 -44.6 11.1 c -8.2 5 -8.3 20.6 -0.1 27.5 c 5.5 4.5 14 4.2 15.2 -0.6 c 0.6 -2.3 -1.9 -5.9 -4.2 -5.9 c -3.1 0 -7.1 -3.9 -7.1 -6.9 c 0 -4.9 2.7 -6 24.2 -10.7 c 11.2 -2.4 21.3 -4.4 22.4 -4.4 c 1.8 0 2.3 0.9 3.3 5.7 c 2.3 12.1 11.9 27.2 21.4 33.7 c 28.4 19.6 61.2 3.8 70.7 -33.9 c 1.1 -4.4 2.7 -8.5 3.6 -9.2 c 3.8 -2.8 25.2 -2.9 28.1 -0.1 c 0.7 0.7 2.2 4.9 3.3 9.3 c 2.8 11.2 7.2 19.6 14 26.9 c 10 10.6 21.2 15.1 35.9 14.4 c 11.2 -0.6 18.3 -3.8 26.7 -12.2 c 7 -7 12.8 -17.8 14.8 -27.7 c 0.7 -3.3 1.9 -6.5 2.7 -6.9 c 2.7 -1.5 42.7 7.9 45.5 10.7 c 2.3 2.4 1.7 6.9 -1.2 9.2 c -1.5 1.2 -3.2 2.1 -3.9 2.1 c -1.6 0 -4.5 3.3 -4.5 5.2 c 0 3.1 3.7 5.1 8.1 4.5 c 8.2 -1.1 13.9 -7.8 13.9 -16.4 c 0 -6 -1.7 -10.1 -5.4 -13 c -1.5 -1.2 -12.4 -4.5 -28 -8.4 l -25.6 -6.4 l -0.5 -3.5 c -0.8 -5.8 -4.4 -15.9 -7.8 -21.9 c -4.2 -7.5 -13.9 -16.9 -21.2 -20.6 c -5.7 -2.8 -6.7 -3 -18 -3 c -11.2 0 -12.4 0.2 -18 2.9 c -7.5 3.7 -16.9 13.1 -21.2 21.1 c -2.5 4.7 -7.3 19.2 -7.3 22 c 0 0.3 -7.5 0.5 -16.8 0.5 l -16.7 0 l -1.2 -6.1 c -2.9 -15 -13.4 -29.5 -26.5 -36.5 c -6.7 -3.5 -8 -3.8 -16.3 -4 c -4.9 -0.2 -11.1 0.1 -13.7 0.6"/><path d="M 599.3 233.4 c -3.8 1.7 -5.3 4.3 -5.3 9.1 c 0 7.1 5.2 13.1 14 16.2 c 5.7 2 6 3 2.7 8.8 c -5.1 9 -15.5 11.4 -23.8 5.3 c -2.4 -1.7 -5.2 -4.2 -6.2 -5.5 c -2.2 -2.8 -6.7 -3 -9 -0.5 c -2.2 2.4 -2.1 3.4 0.3 8.1 c 3.5 6.9 14.3 14.1 21.1 14.1 c 1.4 0 1.7 1.5 2.1 11.2 c 0.5 12.7 1.5 15.6 7.4 20.8 c 5.2 4.6 9.9 6.3 16.9 6.3 c 6.9 0 11.7 -1.7 16.7 -6.2 c 5.7 -5 6.8 -8.4 6.8 -20.9 l 0 -11 l 4.8 -0.7 c 6.4 -0.9 12.4 -4.6 16.7 -10.2 c 3.9 -5.1 4.5 -9.1 1.8 -11.5 c -4.1 -3.5 -5.4 -3.1 -11.4 2.8 c -6.4 6.3 -10.4 7.7 -17.3 6 c -5.7 -1.4 -11.6 -7.6 -11.6 -12.1 c 0 -2.5 0.5 -3.7 1.8 -4.1 c 9.9 -3.2 15.2 -8 16 -14.9 c 0.6 -5.4 -0.9 -8.7 -4.7 -10.6 c -4 -2 -35.6 -2.4 -39.8 -0.5 z m 25.3 55.8 c 5 3 5.4 3.5 4.9 6.2 c -1.7 9.3 -11.1 17.3 -19.6 16.7 c -1.9 -0.1 -3.3 -2.9 -4.9 -10.4 c -1.2 -5.1 -1.2 -6 0.3 -7.4 c 1.3 -1.3 11.7 -7.6 13.5 -8.2 c 0.2 0 2.8 1.4 5.8 3.1 z"/>
<path d="M 1232.72 320 c -1.104 0 -2.004 0.9 -2.004 2.004 v 4.008 a 2.004 2.004 90 0 0 4.008 0 V 322.004 C 1234.724 320.9 1233.824 320 1232.72 320 z M 1232.72 373.424 c -1.104 0 -2.004 0.9 -2.004 2.004 v 4.008 a 2.004 2.004 90 0 0 4.008 0 v -4.008 c 0 -1.104 -0.9 -2.004 -2.004 -2.004 z M 1208 348.716 H 1204.016 a 2.004 2.004 90 0 0 0 4.008 h 4.008 a 2.004 2.004 90 0 0 0 -4.008 z M 1261.436 348.716 h -4.008 a 2.004 2.004 90 0 0 0 4.008 h 4.008 a 2.004 2.004 90 0 0 0 -4.008 z M 1213.052 362.072 a 2.004 2.004 90 0 0 -2.736 -0.732 l -3.468 2.004 a 2.004 2.004 90 0 0 2.004 3.48 l 3.48 -2.016 c 0.96 -0.552 1.272 -1.776 0.72 -2.736 z M 1259.324 335.36 a 2.004 2.004 90 0 0 -2.736 -0.732 l -3.48 2.004 a 2.004 2.004 90 0 0 2.016 3.468 l 3.468 -2.004 c 0.96 -0.552 1.284 -1.776 0.732 -2.736 z M 1221.368 370.388 c -0.96 -0.552 -2.184 -0.24 -2.736 0.72 l -2.004 3.48 a 2.004 2.004 90 0 0 3.48 2.004 l 1.992 -3.48 c 0.552 -0.96 0.228 -2.172 -0.732 -2.724 z M 1248.08 324.116 c -0.96 -0.552 -2.184 -0.228 -2.736 0.732 l -2.004 3.48 a 2.004 2.004 90 0 0 3.48 1.992 L 1248.8 326.852 c 0.552 -0.96 0.228 -2.184 -0.732 -2.736 z M 1248.812 374.588 l -2.004 -3.48 a 2.004 2.004 90 1 0 -3.468 2.016 l 2.004 3.468 a 2.004 2.004 90 1 0 3.48 -2.004 z M 1222.1 328.316 l -2.004 -3.468 a 2.004 2.004 90 1 0 -3.48 2.004 l 2.016 3.48 a 2.004 2.004 90 1 0 3.468 -2.016 z M 1258.592 363.344 l -3.48 -2.004 a 2.004 2.004 90 1 0 -1.992 3.48 l 3.468 1.992 a 2.004 2.004 90 1 0 2.004 -3.48 z M 1212.32 336.632 l -3.468 -2.004 a 2.004 2.004 90 1 0 -2.004 3.48 l 3.48 1.992 a 2.004 2.004 90 1 0 1.992 -3.48 z M 1232.72 332.024 c -10.32 0 -18.696 8.388 -18.696 18.696 S 1222.4 369.416 1232.72 369.416 S 1251.416 361.04 1251.416 350.72 S 1243.04 332.024 1232.72 332.024" /><path d="M 886.2 529.3 c -4 4.2 -4.4 9.2 -0.8 13.3 c 4.3 5.1 13 3.2 16.1 -3.3 c 2.1 -4.4 0.6 -8.6 -3.9 -11.4 c -4.6 -2.8 -7.7 -2.4 -11.4 1.4 z"/><path d="M 774.5 531.9 c -2 4 -1 9 2.2 10.2 c 3.3 1.2 88.9 1.2 93.2 -0.1 c 1.9 -0.5 3.8 -1.5 4.3 -2.2 c 1.5 -2.4 0.8 -6.5 -1.5 -8.6 c -2.3 -2.2 -2.4 -2.2 -49.5 -2.2 l -47.1 0 l -1.6 2.9 z"/>
</svg>